<svg width="80" height="80" viewBox="0 0 80 80" fill="none" xmlns="http://www.w3.org/2000/svg">
<path fill-rule="evenodd" clip-rule="evenodd" d="M75.4398 53.3862C75.3493 53.8503 75.07 54.239 74.6662 54.488L42.2623 74.3776V6.44498L75.1568 52.0806C75.4285 52.4617 75.5304 52.9258 75.4398 53.3862V53.3862ZM37.7377 74.3814L5.33381 54.488C4.92626 54.239 4.65079 53.8503 4.56023 53.3862C4.46589 52.9258 4.57155 52.4617 4.84325 52.0806L37.7377 6.44498V74.3814ZM78.8247 49.4354L45.0623 2.59233V2.58856C44.0925 1.24522 42.5868 0.460356 40.9906 0.233951C40.6925 0.0867884 40.3566 0 39.9981 0C39.6434 0 39.3076 0.0867884 39.0095 0.233951C37.4094 0.460356 35.9038 1.24522 34.9377 2.59233L1.17153 49.4316C0.16775 50.8278 -0.217157 52.5937 0.118693 54.2767C0.458318 55.9634 1.49606 57.4501 2.96776 58.3482L36.7302 79.0755C37.7415 79.6944 38.8698 80 39.9981 80C41.1302 80 42.2623 79.6944 43.2699 79.0755L77.0323 58.3482C78.504 57.4501 79.5417 55.9634 79.8814 54.2767C80.2172 52.5937 79.8323 50.8278 78.8247 49.4354V49.4354Z" fill="#3D3BEE"/>
</svg>
