<svg width="80" height="80" viewBox="0 0 80 80" fill="none" xmlns="http://www.w3.org/2000/svg">
<path fill-rule="evenodd" clip-rule="evenodd" d="M57.3574 40C57.3574 41.2491 56.346 42.2642 55.0931 42.2642H42.2623V55.0943C42.2623 56.3434 41.251 57.3585 39.9981 57.3585C38.7452 57.3585 37.7376 56.3434 37.7376 55.0943V42.2642H24.903C23.6501 42.2642 22.6425 41.2491 22.6425 40C22.6425 38.7509 23.6501 37.7358 24.903 37.7358H37.7376V24.9057C37.7376 23.6566 38.7452 22.6415 39.9981 22.6415C41.251 22.6415 42.2623 23.6566 42.2623 24.9057V37.7358H55.0931C56.346 37.7358 57.3574 38.7509 57.3574 40M39.9981 75.4717C20.4387 75.4717 4.52477 59.5623 4.52477 40C4.52477 20.4377 20.4387 4.5283 39.9981 4.5283C59.5613 4.5283 75.4753 20.4377 75.4753 40C75.4753 59.5623 59.5613 75.4717 39.9981 75.4717M39.9981 0C17.9442 0 0 17.9434 0 40C0 62.0566 17.9442 80 39.9981 80C62.0558 80 80 62.0566 80 40C80 17.9434 62.0558 0 39.9981 0" fill="#3D3BEE"/>
</svg>
