<svg width="80" height="80" viewBox="0 0 80 80" fill="none" xmlns="http://www.w3.org/2000/svg">
<path fill-rule="evenodd" clip-rule="evenodd" d="M75.4753 35.7547C75.4753 32.8415 73.1016 30.4717 70.192 30.4717H57.3575V75.4717H75.4753V35.7547ZM52.8327 9.81135C52.8327 6.89814 50.459 4.52833 47.5494 4.52833H9.81182C6.89847 4.52833 4.52477 6.89814 4.52477 9.81135V75.4717H52.8327V9.81135ZM80 35.7547V77.7359C80 78.9887 78.9886 80 77.7395 80H2.26426C1.01514 80 0 78.9887 0 77.7359V9.81132C0 4.4 4.40021 0 9.81178 0H47.5494C52.9572 0 57.3574 4.4 57.3574 9.81132V25.9434H70.192C75.5998 25.9434 80 30.3434 80 35.7547V35.7547ZM38.6924 53.6151C37.4433 53.6151 36.4282 54.6302 36.4282 55.8792V64.5283C36.4282 65.7811 37.4433 66.7924 38.6924 66.7924C39.9415 66.7924 40.9567 65.7811 40.9567 64.5283V55.8792C40.9567 54.6302 39.9415 53.6151 38.6924 53.6151V53.6151ZM18.665 53.6151C17.4159 53.6151 16.4045 54.6302 16.4045 55.8792V64.5283C16.4045 65.7811 17.4159 66.7924 18.665 66.7924C19.9141 66.7924 20.9293 65.7811 20.9293 64.5283V55.8792C20.9293 54.6302 19.9141 53.6151 18.665 53.6151V53.6151ZM38.6924 33.4113C37.4433 33.4113 36.4282 34.4226 36.4282 35.6755V44.3245C36.4282 45.5774 37.4433 46.5887 38.6924 46.5887C39.9415 46.5887 40.9567 45.5774 40.9567 44.3245V35.6755C40.9567 34.4226 39.9415 33.4113 38.6924 33.4113V33.4113ZM18.665 33.4113C17.4159 33.4113 16.4045 34.4226 16.4045 35.6755V44.3245C16.4045 45.5774 17.4159 46.5887 18.665 46.5887C19.9141 46.5887 20.9293 45.5774 20.9293 44.3245V35.6755C20.9293 34.4226 19.9141 33.4113 18.665 33.4113V33.4113ZM38.6924 13.2076C37.4433 13.2076 36.4282 14.2189 36.4282 15.4717V24.1208C36.4282 25.3698 37.4433 26.3849 38.6924 26.3849C39.9415 26.3849 40.9567 25.3698 40.9567 24.1208V15.4717C40.9567 14.2189 39.9415 13.2076 38.6924 13.2076V13.2076ZM20.9293 15.4717V24.1208C20.9293 25.3698 19.9141 26.3849 18.665 26.3849C17.4159 26.3849 16.4045 25.3698 16.4045 24.1208V15.4717C16.4045 14.2189 17.4159 13.2076 18.665 13.2076C19.9141 13.2076 20.9293 14.2189 20.9293 15.4717V15.4717Z" fill="#3D3BEE"/>
</svg>
