<svg width="78" height="80" viewBox="0 0 78 80" fill="none" xmlns="http://www.w3.org/2000/svg">
<path fill-rule="evenodd" clip-rule="evenodd" d="M72.8383 74.2335C72.8383 75.03 72.1863 75.6751 71.3893 75.6751H42.5171L38.9416 45.141L51.1244 35.2802C51.7729 34.7612 52.4213 34.9774 52.6677 35.0964C52.914 35.2153 53.4936 35.5757 53.4936 36.3975V44.6437C53.4936 45.4762 53.9754 46.2367 54.7325 46.5971C55.486 46.9539 56.3808 46.8494 57.0365 46.3232L70.4764 35.4784C71.114 34.9666 71.766 35.1829 72.0088 35.2982C72.2587 35.4135 72.8383 35.7775 72.8383 36.5993V74.2335ZM6.617 75.675C6.04825 75.675 5.69686 75.3723 5.53384 75.1921C5.37082 75.0119 5.11 74.6226 5.17158 74.0676L11.5764 19.404C11.6597 18.676 12.2791 18.1281 13.0145 18.1281H30.1132C30.8486 18.1281 31.4681 18.676 31.555 19.404L38.1409 75.675H6.617ZM73.8816 31.3949C71.8493 30.4326 69.4946 30.7065 67.7377 32.1193L57.8371 40.106V36.3974C57.8371 34.1521 56.5728 32.1554 54.5333 31.1931C52.4937 30.2236 50.1354 30.5047 48.3821 31.9247L38.3474 40.0484L35.8696 18.903C35.5291 15.9945 33.0584 13.8032 30.1133 13.8032H23.4766C23.4585 13.5653 23.4585 13.3311 23.473 13.1004C23.6795 10.6568 26.0378 9.25122 28.11 8.98451C30.2835 8.74304 32.5875 9.26924 35.174 9.94321L35.9058 10.1198C38.0939 10.664 40.3652 11.2191 42.8141 11.0749C47.1359 10.819 50.2187 7.61855 51.0556 2.51152C51.2512 1.33297 50.447 0.219303 49.2624 0.0282852C48.114 -0.162733 46.962 0.633777 46.77 1.81232C46.4114 3.97479 45.3934 6.58778 42.5497 6.75717C40.7384 6.86529 38.909 6.41117 36.96 5.92462L36.2355 5.74802C33.2577 4.97313 30.5516 4.35683 27.5919 4.69201C22.9586 5.28669 19.4845 8.59527 19.1404 12.776C19.115 13.1184 19.1114 13.4608 19.1259 13.8032H13.0146C10.073 13.8032 7.59875 15.9945 7.25823 18.903L0.857076 73.5667C0.665078 75.2029 1.19036 76.8428 2.28801 78.0682C3.38566 79.2972 4.96511 80 6.61702 80H71.3893C74.5808 80 77.1818 77.4122 77.1818 74.2334V36.5992C77.1818 34.3539 75.9211 32.3608 73.8816 31.3949V31.3949Z" fill="#3D3BEE"/>
</svg>
