<svg width="74" height="80" viewBox="0 0 74 80" fill="none" xmlns="http://www.w3.org/2000/svg">
<path fill-rule="evenodd" clip-rule="evenodd" d="M68.845 57.7503C68.845 58.3239 68.5287 58.8485 68.0166 59.1126L39.2593 74.0187V38.512L68.845 23.1795V57.7503ZM37 34.5873L7.81343 19.4623L36.2958 4.69965C36.7364 4.46945 37.2636 4.47323 37.7041 4.69587L66.1865 19.4623L37 34.5873ZM34.7407 74.0187L5.98338 59.1088C5.47127 58.8485 5.15497 58.3239 5.15497 57.7503V23.1795L34.7407 38.512V74.0187ZM73.3523 19.2548C73.3523 19.2359 73.3486 19.2209 73.3486 19.1982C73.341 19.1454 73.3335 19.0925 73.3222 19.0397C73.3184 19.0208 73.3184 19.0058 73.3147 18.9907C73.3034 18.9303 73.2883 18.8737 73.2695 18.8171C73.262 18.7906 73.2544 18.768 73.2469 18.7416C73.2356 18.7076 73.2205 18.6737 73.2092 18.6397C73.1979 18.6095 73.1866 18.5831 73.1754 18.5567C73.1565 18.5076 73.1302 18.4548 73.1038 18.4095C73.0887 18.3793 73.0774 18.3567 73.0624 18.3303C73.0436 18.3001 73.0247 18.2699 73.0059 18.2397C72.9908 18.217 72.9758 18.1944 72.9607 18.168C72.9306 18.1265 72.8967 18.0812 72.8628 18.0435C72.844 18.017 72.8252 17.9944 72.8026 17.9718C72.78 17.9453 72.7611 17.9189 72.7348 17.8963C72.7122 17.8736 72.6896 17.851 72.6708 17.8284C72.6482 17.8095 72.6218 17.7868 72.5992 17.7642C72.5503 17.7227 72.5013 17.6812 72.4486 17.6434C72.4335 17.6321 72.4185 17.6208 72.4034 17.6095C72.3695 17.5831 72.3356 17.5642 72.298 17.5416C72.2867 17.5302 72.2716 17.5227 72.2603 17.5151C72.2189 17.4925 72.1737 17.4661 72.1285 17.4434L39.7789 0.676908V0.673134C38.0393 -0.225006 35.9607 -0.225006 34.221 0.676908L1.87144 17.4434C1.82626 17.4661 1.78107 17.4925 1.73965 17.5151C1.72835 17.5227 1.71329 17.5302 1.70199 17.5416C1.66434 17.5642 1.63045 17.5831 1.59656 17.6095C1.5815 17.6208 1.56644 17.6321 1.55137 17.6434C1.49866 17.6812 1.44971 17.7227 1.40075 17.7642C1.37816 17.7868 1.3518 17.8095 1.32921 17.8284C1.30662 17.851 1.28779 17.8736 1.26519 17.8963C1.23884 17.9189 1.22001 17.9453 1.19742 17.9718C1.17482 17.9944 1.15223 18.017 1.13717 18.0435C1.10328 18.0812 1.06939 18.1265 1.03926 18.168C1.0242 18.1944 1.00914 18.217 0.990312 18.2397C0.975249 18.2699 0.956422 18.3001 0.937594 18.3303C0.922532 18.3567 0.90747 18.3793 0.896173 18.4095C0.869815 18.4548 0.843456 18.5076 0.824629 18.5567C0.813332 18.5831 0.802035 18.6095 0.790739 18.6397C0.779442 18.6737 0.76438 18.7076 0.753084 18.7416C0.745553 18.768 0.738022 18.7906 0.730491 18.8171C0.711663 18.8737 0.696601 18.9303 0.685304 18.9907C0.681539 19.0058 0.677773 19.0208 0.674008 19.0397C0.666477 19.0925 0.658946 19.1454 0.651415 19.1982C0.651415 19.2209 0.647649 19.2359 0.647649 19.2548C0.640118 19.3227 0.636353 19.3907 0.636353 19.4624V57.7503C0.636353 60.0258 1.89027 62.0863 3.90859 63.1316L35.9118 79.7207C35.923 79.7283 35.9381 79.7358 35.9532 79.7434L35.9607 79.7472C36.0021 79.7698 36.0435 79.7887 36.0887 79.8075C36.1189 79.8226 36.1452 79.834 36.1791 79.8453C36.2092 79.8566 36.2394 79.8679 36.2695 79.8792C36.2996 79.8906 36.3335 79.9019 36.3674 79.9094C36.4163 79.9245 36.4615 79.9359 36.5105 79.9472C36.5293 79.9509 36.5519 79.9547 36.5707 79.9585C36.631 79.9736 36.6912 79.9811 36.7552 79.9887C36.7665 79.9887 36.7778 79.9925 36.7929 79.9925C36.8607 80 36.9284 80 37 80C37.0715 80 37.1393 80 37.2071 79.9925C37.2222 79.9925 37.2334 79.9887 37.2447 79.9887C37.3088 79.9811 37.369 79.9736 37.4293 79.9585C37.4481 79.9547 37.4707 79.9509 37.4895 79.9472C37.5385 79.9359 37.5836 79.9245 37.6326 79.9094C37.6665 79.9019 37.7004 79.8906 37.7305 79.8792C37.7606 79.8679 37.7907 79.8566 37.8209 79.8453C37.8548 79.834 37.8811 79.8226 37.9112 79.8075C37.9564 79.7887 37.9978 79.7698 38.0393 79.7472L38.0468 79.7434C38.0619 79.7358 38.0769 79.7283 38.0882 79.7207L70.0914 63.1354C72.1097 62.0863 73.3636 60.0258 73.3636 57.7503V19.4624C73.3636 19.3907 73.3599 19.3227 73.3523 19.2548V19.2548Z" fill="#3D3BEE"/>
</svg>
