<svg width="80" height="80" viewBox="0 0 80 80" fill="none" xmlns="http://www.w3.org/2000/svg">
<path fill-rule="evenodd" clip-rule="evenodd" d="M46.6739 74.8932C62.6071 57.0422 62.6071 23.017 46.6739 5.16606C63.1736 8.32689 75.4851 23.236 75.4851 40.0296C75.4851 56.8232 63.1736 71.7361 46.6739 74.8932M39.9857 74.9952C29.5889 66.8948 26.0616 51.8497 26.2051 39.3084C26.2882 32.4354 27.4778 25.5057 30.0534 19.1161C31.2128 16.246 32.6592 13.4704 34.4568 10.944C35.2688 9.8035 36.1525 8.70835 37.1155 7.68873C37.5687 7.20535 38.0408 6.74086 38.5317 6.29147C39.7024 5.22653 39.642 5.06414 41.0507 5.94782C45.6089 8.81409 48.6566 15.6531 50.4353 20.4605C52.8108 26.8992 53.8342 33.8213 53.7625 40.6679C53.6416 52.8089 50.0313 67.1781 39.9857 74.9952M4.48622 40.0296C4.48622 23.2398 16.7977 8.32689 33.2974 5.16606C17.3604 23.017 17.3604 57.0422 33.2974 74.8932C16.7977 71.7361 4.48622 56.8194 4.48622 40.0296M40.0045 3.98799e-06C23.3576 -0.00754878 8.07017 10.7136 2.36761 26.344C-3.52756 42.4994 1.86911 61.0452 15.408 71.604C27.9914 81.4226 45.692 82.7632 59.5972 74.9197C74.3483 66.5927 82.4339 49.4026 79.3485 32.7337C75.8892 14.0255 59.0269 0.00755675 40.0045 3.98799e-06" fill="#3D3BEE"/>
</svg>
