<svg width="26" height="26" viewBox="0 0 16 16" fill="none" xmlns="http://www.w3.org/2000/svg">
<path fill-rule="evenodd" clip-rule="evenodd" d="M9.43941 12.5283V5.73586C9.43941 5.48529 9.6432 5.28303 9.89396 5.28303C10.1455 5.28303 10.3485 5.48529 10.3485 5.73586V12.5283C10.3485 12.7789 10.1455 12.9811 9.89396 12.9811C9.6432 12.9811 9.43941 12.7789 9.43941 12.5283ZM5.65154 12.5283V5.73586C5.65154 5.48529 5.85533 5.28303 6.10609 5.28303C6.3576 5.28303 6.56064 5.48529 6.56064 5.73586V12.5283C6.56064 12.7789 6.3576 12.9811 6.10609 12.9811C5.85533 12.9811 5.65154 12.7789 5.65154 12.5283ZM12.8485 13.283C12.8485 14.2815 12.0326 15.0943 11.0303 15.0943H4.96973C3.96745 15.0943 3.15154 14.2815 3.15154 13.283V3.16981H12.8485V13.283ZM6.56063 1.20754C6.56063 1.04075 6.69624 0.905658 6.86366 0.905658H9.13639C9.30382 0.905658 9.43942 1.04075 9.43942 1.20754V2.26415H6.56063V1.20754ZM14.8182 2.26415H10.3485V1.20755C10.3485 0.541887 9.80457 0 9.13639 0H6.86366C6.19548 0 5.65154 0.541887 5.65154 1.20755V2.26415H1.18184C0.931083 2.26415 0.727295 2.46642 0.727295 2.71698C0.727295 2.96755 0.931083 3.16981 1.18184 3.16981H2.24245V13.283C2.24245 14.7811 3.46593 16 4.96972 16H11.0303C12.5341 16 13.7576 14.7811 13.7576 13.283V3.16981H14.8182C15.0697 3.16981 15.2727 2.96755 15.2727 2.71698C15.2727 2.46642 15.0697 2.26415 14.8182 2.26415V2.26415Z" fill="#D00202"/>
</svg>
