<?xml version="1.0" standalone="no"?>
<!DOCTYPE svg PUBLIC "-//W3C//DTD SVG 20010904//EN"
 "http://www.w3.org/TR/2001/REC-SVG-20010904/DTD/svg10.dtd">
<svg version="1.0" xmlns="http://www.w3.org/2000/svg"
 width="700.000000pt" height="700.000000pt" viewBox="0 0 700.000000 700.000000"
 preserveAspectRatio="xMidYMid meet">
<metadata>
Created by potrace 1.11, written by Peter Selinger 2001-2013
</metadata>
<g transform="translate(0.000000,700.000000) scale(0.100000,-0.100000)"
fill="#000000" stroke="none">
<path d="M2265 6990 c-33 -4 -87 -11 -120 -14 -215 -26 -523 -121 -747 -231
-96 -48 -275 -150 -288 -164 -3 -4 -23 -18 -46 -33 -23 -14 -81 -58 -129 -97
-310 -249 -564 -580 -722 -941 -41 -92 -91 -224 -98 -258 -2 -9 -13 -48 -25
-87 -26 -90 -67 -307 -77 -410 -5 -44 -8 -615 -8 -1270 0 -1166 2 -1257 31
-1410 2 -11 6 -33 9 -50 13 -65 67 -279 75 -294 5 -9 23 -59 41 -111 69 -200
230 -485 384 -681 73 -93 297 -317 392 -392 132 -104 297 -208 458 -287 139
-68 347 -150 418 -164 12 -3 56 -14 98 -24 41 -11 91 -23 110 -26 262 -43 184
-41 1459 -41 1061 0 1309 4 1370 20 8 2 33 6 55 10 81 11 112 18 221 46 61 15
162 46 223 68 111 40 322 134 351 157 8 6 31 20 50 29 137 69 391 267 541 421
385 398 608 862 691 1439 10 70 13 363 13 1310 0 1126 -1 1229 -18 1335 -24
155 -22 141 -52 264 -76 309 -226 630 -409 876 -339 455 -794 771 -1330 925
-104 30 -256 61 -341 71 -33 3 -82 10 -110 14 -62 10 -2387 10 -2470 0z m909
-1002 c-4 -7 -24 -36 -45 -64 -72 -99 -161 -256 -222 -394 -51 -115 -117 -351
-133 -475 -3 -22 -8 -51 -11 -65 -12 -59 -11 -390 2 -480 20 -143 25 -167 51
-268 108 -409 332 -759 657 -1031 274 -228 625 -386 972 -437 22 -3 51 -8 65
-11 14 -3 104 -6 200 -8 173 -3 338 12 460 40 14 3 36 8 50 11 47 9 195 56
270 86 150 59 351 172 461 259 20 16 40 29 44 29 4 0 5 -197 2 -437 -4 -463
-7 -499 -58 -668 -69 -228 -191 -441 -353 -613 -100 -106 -290 -244 -430 -311
-80 -39 -245 -99 -296 -107 -14 -3 -32 -7 -40 -9 -8 -3 -32 -7 -54 -11 -21 -3
-48 -8 -60 -12 -11 -3 -541 -7 -1176 -8 -941 -2 -1172 0 -1245 12 -631 97
-1113 548 -1253 1174 l-26 115 -2 1165 c-2 1125 -2 1169 18 1280 80 461 364
859 768 1072 75 40 253 113 302 124 10 2 28 6 41 10 12 3 33 7 47 10 14 3 32
7 40 9 8 2 42 7 75 11 33 3 61 8 63 9 2 2 188 4 414 4 333 2 408 -1 402 -11z
m1748 -252 c57 -8 176 -45 246 -77 164 -74 354 -240 428 -374 6 -11 25 -45 42
-75 40 -73 81 -196 98 -295 12 -76 13 -280 0 -335 -3 -14 -8 -38 -12 -55 -34
-170 -147 -368 -286 -500 -194 -184 -437 -278 -703 -271 -135 4 -157 7 -258
35 -347 95 -643 410 -703 748 -3 15 -9 45 -14 67 -16 72 -5 293 19 383 22 84
28 101 63 183 129 296 442 528 773 573 38 5 258 0 307 -7z"/>
</g>
</svg>
