<svg width="50" height="50" viewBox="0 0 50 50" fill="none" xmlns="http://www.w3.org/2000/svg">
<g clip-path="url(#clip0)">
<path d="M29.4219 25.0005L49.0838 5.33858C50.3054 4.11805 50.3054 2.13768 49.0838 0.917155C47.8623 -0.304416 45.884 -0.304416 44.6624 0.917155L25.0005 20.579L5.3376 0.917155C4.11603 -0.304416 2.13775 -0.304416 0.916179 0.917155C-0.305393 2.13768 -0.305393 4.11805 0.916179 5.33858L20.5791 25.0005L0.916179 44.6623C-0.305393 45.8829 -0.305393 47.8632 0.916179 49.0838C1.52696 49.6935 2.32745 49.9989 3.12689 49.9989C3.92633 49.9989 4.72681 49.6935 5.3376 49.0827L25.0005 29.4208L44.6624 49.0827C45.2732 49.6935 46.0737 49.9989 46.8731 49.9989C47.6726 49.9989 48.473 49.6935 49.0838 49.0827C50.3054 47.8622 50.3054 45.8818 49.0838 44.6613L29.4219 25.0005Z" fill="white"/>
</g>
<defs>
<clipPath id="clip0">
<rect width="50" height="50" fill="white"/>
</clipPath>
</defs>
</svg>
