<svg width="50" height="50" viewBox="0 0 50 50" fill="none" xmlns="http://www.w3.org/2000/svg">
<path d="M25 20.6055C22.5768 20.6055 20.6055 22.5768 20.6055 25C20.6055 27.4232 22.5768 29.3945 25 29.3945C27.4232 29.3945 29.3945 27.4232 29.3945 25C29.3945 22.5768 27.4232 20.6055 25 20.6055Z" fill="#0479FF"/>
<path d="M48.9986 20.6813L42.9715 18.7043C42.7397 18.042 42.468 17.3868 42.1575 16.7459L44.9542 11.154C45.236 10.5904 45.1259 9.90947 44.6795 9.46318L40.5367 5.32041C40.0904 4.87412 39.4123 4.76396 38.8459 5.0457L33.254 7.84238C32.6131 7.53193 31.958 7.26016 31.2956 7.02842L29.3187 1.00127C29.1198 0.403418 28.5605 0 27.9297 0H22.0703C21.4395 0 20.8801 0.403418 20.6813 1.00137L18.7043 7.02852C18.042 7.26025 17.3868 7.53203 16.7459 7.84248L11.154 5.0458C10.589 4.76396 9.91094 4.87129 9.46318 5.32051L5.32041 9.46318C4.87412 9.90947 4.76396 10.5904 5.0457 11.154L7.84238 16.7459C7.53193 17.3868 7.26016 18.0419 7.02842 18.7043L1.00127 20.6813C0.403418 20.8802 0 21.4395 0 22.0703V27.9297C0 28.5605 0.403418 29.1199 1.00137 29.3187L7.02852 31.2957C7.26025 31.958 7.53203 32.6132 7.84248 33.2541L5.0458 38.846C4.76396 39.4096 4.87412 40.0905 5.32051 40.5368L9.46328 44.6796C9.9125 45.1273 10.5934 45.2375 11.1541 44.9543L16.746 42.1576C17.3869 42.4681 18.042 42.7398 18.7044 42.9716L20.6813 48.9987C20.8801 49.5966 21.4395 50 22.0703 50H27.9297C28.5605 50 29.1198 49.5966 29.3187 48.9986L31.2957 42.9715C31.958 42.7397 32.6132 42.468 33.2541 42.1575L38.846 44.9542C39.4082 45.2346 40.0891 45.1244 40.5368 44.6795L44.6796 40.5367C45.1259 40.0904 45.236 39.4095 44.9543 38.8459L42.1576 33.254C42.4681 32.6131 42.7398 31.958 42.9716 31.2956L48.9987 29.3187C49.5966 29.1199 50 28.5605 50 27.9297V22.0703C50 21.4395 49.5966 20.8801 48.9986 20.6813ZM25 35.2539C19.3466 35.2539 14.7461 30.6534 14.7461 25C14.7461 19.3466 19.3466 14.7461 25 14.7461C30.6534 14.7461 35.2539 19.3466 35.2539 25C35.2539 30.6534 30.6534 35.2539 25 35.2539Z" fill="#0479FF"/>
</svg>
