<svg width="16" height="16" viewBox="0 0 16 16" fill="none" xmlns="http://www.w3.org/2000/svg">
<path fill-rule="evenodd" clip-rule="evenodd" d="M15.0502 13.8068C15.0502 14.4785 14.5179 15.0249 13.8644 15.0249H13.2513V11.4795C13.2513 10.7403 12.6652 10.1386 11.9451 10.1386H4.05485C3.33482 10.1386 2.74944 10.7403 2.74944 11.4795V15.0249H2.13555C1.48205 15.0249 0.949747 14.4785 0.949747 13.8068V2.19386C0.949747 1.52218 1.48205 0.975731 2.13555 0.975731H3.02272V3.11438C3.02272 3.85355 3.60889 4.45449 4.32892 4.45449H8.55646C9.2765 4.45449 9.86187 3.85355 9.86187 3.11438V0.975731H9.91811C10.231 0.975731 10.5399 1.10584 10.7625 1.32702L14.7033 5.37256C14.9267 5.60269 15.0502 5.90844 15.0502 6.23371V13.8068ZM12.3008 15.025H3.69919V11.4796C3.69919 11.2787 3.85919 11.1136 4.05485 11.1136H11.9451C12.1408 11.1136 12.3008 11.2787 12.3008 11.4796V15.025ZM3.97326 0.975731H8.91212V3.11438C8.91212 3.31523 8.75212 3.47949 8.55646 3.47949H4.32893C4.13327 3.47949 3.97326 3.31523 3.97326 3.11438V0.975731ZM15.3742 4.68307L11.4295 0.633462C11.0207 0.225249 10.4837 0 9.91812 0H9.3874H3.49799H2.13555C0.957671 0 0 0.98394 0 2.19394V13.8069C0 15.0161 0.957671 16 2.13555 16H13.8644C15.0423 16 16 15.0161 16 13.8069V6.23379C16 5.6483 15.7782 5.09697 15.3742 4.68307V4.68307Z" fill="black"/>
</svg>
