<svg width="16" height="16" viewBox="0 0 16 16" fill="none" xmlns="http://www.w3.org/2000/svg">
<path fill-rule="evenodd" clip-rule="evenodd" d="M8.50001 12.5654V9.3471C8.50001 9.11303 8.31449 8.92351 8.08622 8.92351C5.04346 8.92351 2.24966 10.7254 0.888284 13.4408C0.847595 13.124 0.827595 12.8037 0.827595 12.4826C0.827595 10.4955 1.58277 8.62791 2.95449 7.22066C4.32622 5.81483 6.14691 5.04049 8.08346 5.04049H8.08622C8.19587 5.04049 8.3007 4.99664 8.37863 4.91744C8.45656 4.83682 8.50001 4.72934 8.50001 4.6169L8.4538 1.56974L15.1835 7.03751L8.50001 12.5654ZM15.6993 6.42027L8.97034 0.907241C8.72828 0.708529 8.40483 0.671756 8.12483 0.808946C7.84552 0.946135 7.67241 1.22971 7.67241 1.54722V4.2019C3.40483 4.42324 0 8.0531 0 12.4828C0 13.3292 0.126897 14.1693 0.377241 14.9769C0.431724 15.153 0.591035 15.2725 0.771035 15.2725H0.772414C0.953103 15.2725 1.11241 15.1516 1.16621 14.9748C2.05793 12.0471 4.69793 9.96173 7.67241 9.78352V12.5655C7.67241 12.883 7.84552 13.1659 8.12483 13.3038C8.40345 13.4417 8.72759 13.4035 8.96966 13.2055L15.6993 7.70023C15.8903 7.54324 16 7.30987 16 7.05954C16 6.8092 15.8903 6.57584 15.6993 6.42027V6.42027Z" fill="black"/>
</svg>
