<svg width="19" height="20" viewBox="0 0 19 20" fill="none" xmlns="http://www.w3.org/2000/svg">
<path fill-rule="evenodd" clip-rule="evenodd" d="M11.98 2.51519C11.8026 1.09844 10.5367 0 9.0013 0C7.46596 0 6.2 1.09844 6.02257 2.51518C3.5199 3.59568 1.77908 5.99576 1.77908 8.78307V13.5618L0.108582 16.7137C-0.227141 17.3471 0.25626 18.0952 1.0013 18.0952H6.17201C6.58385 19.2049 7.69509 20 9.0013 20C10.3075 20 11.4188 19.2049 11.8306 18.0952H17.0013C17.7463 18.0952 18.2297 17.3471 17.894 16.7137L16.2235 13.5618V8.78307C16.2235 5.99576 14.4827 3.59568 11.98 2.51519ZM14.3308 14.2177L15.3764 16.1905H2.62623L3.6718 14.2177C3.74234 14.0846 3.77908 13.9376 3.77908 13.7885V8.78307C3.77908 6.03626 6.11715 3.80952 9.0013 3.80952C11.8855 3.80952 14.2235 6.03626 14.2235 8.78307V13.7885C14.2235 13.9376 14.2603 14.0846 14.3308 14.2177Z" fill="#92929D"/>
</svg>
