<svg width="30" height="30" viewBox="0 0 30 30" fill="none" xmlns="http://www.w3.org/2000/svg">
<path fill-rule="evenodd" clip-rule="evenodd" d="M16.6667 13.3333H28.3333C29.2538 13.3333 30 14.0795 30 15C30 15.9205 29.2538 16.6667 28.3333 16.6667H16.6667V28.3333C16.6667 29.2538 15.9205 30 15 30C14.0795 30 13.3333 29.2538 13.3333 28.3333V16.6667H1.66667C0.746192 16.6667 0 15.9205 0 15C0 14.0795 0.746192 13.3333 1.66667 13.3333H13.3333V1.66667C13.3333 0.746192 14.0795 0 15 0C15.9205 0 16.6667 0.746192 16.6667 1.66667V13.3333Z" fill="#0062FF"/>
</svg>
