<svg width="20" height="12" viewBox="0 0 20 12" fill="none" xmlns="http://www.w3.org/2000/svg">
<path fill-rule="evenodd" clip-rule="evenodd" d="M10 8.01129C8.85988 8.01129 7.93176 7.10871 7.93176 5.99997C7.93176 4.89123 8.85988 3.98865 10 3.98865C11.1401 3.98865 12.0683 4.89123 12.0683 5.99997C12.0683 7.10871 11.1401 8.01129 10 8.01129ZM10 2.98299C8.28938 2.98299 6.89762 4.33645 6.89762 5.99997C6.89762 7.6635 8.28938 9.01696 10 9.01696C11.7106 9.01696 13.1024 7.6635 13.1024 5.99997C13.1024 4.33645 11.7106 2.98299 10 2.98299M18.9142 6.17261C16.9493 9.13512 13.6177 10.9034 10 10.9034C6.38228 10.9034 3.05067 9.13512 1.08669 6.17261C1.01775 6.06953 1.01775 5.93042 1.08669 5.82734C3.05067 2.86483 6.38228 1.09738 10 1.09738C13.6177 1.09738 16.9493 2.86483 18.9142 5.82817C18.9822 5.93125 18.9822 6.06953 18.9142 6.17261M19.7828 5.2826C17.6284 2.03181 13.9702 0.0908813 10 0.0908813C6.02982 0.0908813 2.37246 2.03181 0.217167 5.2826C-0.0723888 5.71839 -0.0723888 6.28156 0.217167 6.71818C2.37246 9.96814 6.02982 11.9091 10 11.9091C13.9702 11.9091 17.6284 9.96814 19.7828 6.71818C20.0724 6.2824 20.0724 5.71839 19.7828 5.2826" fill="black"/>
</svg>
